<svg id="visual" viewBox="0 0 900 300" width="900" height="300" xmlns="http://www.w3.org/2000/svg" xmlns:xlink="http://www.w3.org/1999/xlink" version="1.1"><rect x="0" y="0" width="900" height="300" fill="#0f0f0f"></rect><defs><linearGradient id="grad1_0" x1="66.7%" y1="0%" x2="100%" y2="100%"><stop offset="-10%" stop-color="#0f0f0f" stop-opacity="1"></stop><stop offset="110%" stop-color="#0f0f0f" stop-opacity="1"></stop></linearGradient></defs><defs><linearGradient id="grad2_0" x1="0%" y1="0%" x2="33.3%" y2="100%"><stop offset="-10%" stop-color="#0f0f0f" stop-opacity="1"></stop><stop offset="110%" stop-color="#0f0f0f" stop-opacity="1"></stop></linearGradient></defs><g transform="translate(900, 0)"><path d="M0 180C-19.3 162.6 -38.7 145.2 -55.1 133C-71.5 120.9 -85.1 113.9 -105.4 105.4C-125.7 96.8 -152.7 86.7 -166.3 68.9C-179.9 51.1 -179.9 25.5 -180 0L0 0Z" fill="#0062ff"></path></g><g transform="translate(0, 300)"><path d="M0 -180C21.7 -168.7 43.4 -157.5 60.1 -145C76.8 -132.6 88.4 -119 107.5 -107.5C126.5 -95.9 153 -86.5 166.3 -68.9C179.6 -51.3 179.8 -25.7 180 0L0 0Z" fill="#0062ff"></path></g></svg>